<svg width="246" height="55" viewBox="0 0 246 55" fill="none" xmlns="http://www.w3.org/2000/svg">
<path d="M0.941406 2.8125H17.8867C21.7305 2.8125 24.9766 3.39844 27.625 4.57031C30.2969 5.74219 32.3242 7.47656 33.707 9.77344C35.1133 12.0469 35.8164 14.8477 35.8164 18.1758C35.8164 20.5195 35.3359 22.6641 34.375 24.6094C33.4375 26.5312 32.0781 28.1719 30.2969 29.5312C28.5391 30.8672 26.4297 31.8633 23.9688 32.5195L22.0703 33.2578H6.14453L6.07422 27.7383H18.0977C20.5352 27.7383 22.5625 27.3164 24.1797 26.4727C25.7969 25.6055 27.0156 24.4453 27.8359 22.9922C28.6562 21.5391 29.0664 19.9336 29.0664 18.1758C29.0664 16.207 28.6797 14.4844 27.9062 13.0078C27.1328 11.5312 25.9141 10.3945 24.25 9.59766C22.6094 8.77734 20.4883 8.36719 17.8867 8.36719H7.72656V54H0.941406V2.8125ZM30.8594 54L18.4141 30.7969L25.4805 30.7617L38.1016 53.5781V54H30.8594Z" fill="#FB31C2" fill-opacity="0.38"/>
<path d="M42.6016 35.4023V34.5938C42.6016 31.8516 43 29.3086 43.7969 26.9648C44.5938 24.5977 45.7422 22.5469 47.2422 20.8125C48.7422 19.0547 50.5586 17.6953 52.6914 16.7344C54.8242 15.75 57.2148 15.2578 59.8633 15.2578C62.5352 15.2578 64.9375 15.75 67.0703 16.7344C69.2266 17.6953 71.0547 19.0547 72.5547 20.8125C74.0781 22.5469 75.2383 24.5977 76.0352 26.9648C76.832 29.3086 77.2305 31.8516 77.2305 34.5938V35.4023C77.2305 38.1445 76.832 40.6875 76.0352 43.0312C75.2383 45.375 74.0781 47.4258 72.5547 49.1836C71.0547 50.918 69.2383 52.2773 67.1055 53.2617C64.9961 54.2227 62.6055 54.7031 59.9336 54.7031C57.2617 54.7031 54.8594 54.2227 52.7266 53.2617C50.5938 52.2773 48.7656 50.918 47.2422 49.1836C45.7422 47.4258 44.5938 45.375 43.7969 43.0312C43 40.6875 42.6016 38.1445 42.6016 35.4023ZM49.1055 34.5938V35.4023C49.1055 37.3008 49.3281 39.0938 49.7734 40.7812C50.2188 42.4453 50.8867 43.9219 51.7773 45.2109C52.6914 46.5 53.8281 47.5195 55.1875 48.2695C56.5469 48.9961 58.1289 49.3594 59.9336 49.3594C61.7148 49.3594 63.2734 48.9961 64.6094 48.2695C65.9688 47.5195 67.0938 46.5 67.9844 45.2109C68.875 43.9219 69.543 42.4453 69.9883 40.7812C70.457 39.0938 70.6914 37.3008 70.6914 35.4023V34.5938C70.6914 32.7188 70.457 30.9492 69.9883 29.2852C69.543 27.5977 68.8633 26.1094 67.9492 24.8203C67.0586 23.5078 65.9336 22.4766 64.5742 21.7266C63.2383 20.9766 61.668 20.6016 59.8633 20.6016C58.082 20.6016 56.5117 20.9766 55.1523 21.7266C53.8164 22.4766 52.6914 23.5078 51.7773 24.8203C50.8867 26.1094 50.2188 27.5977 49.7734 29.2852C49.3281 30.9492 49.1055 32.7188 49.1055 34.5938Z" fill="#FB31C2" fill-opacity="0.55"/>
<path d="M85.3516 0H91.8906V46.6172L91.3281 54H85.3516V0ZM117.59 34.6641V35.4023C117.59 38.168 117.262 40.7344 116.605 43.1016C115.949 45.4453 114.988 47.4844 113.723 49.2188C112.457 50.9531 110.91 52.3008 109.082 53.2617C107.254 54.2227 105.156 54.7031 102.789 54.7031C100.375 54.7031 98.2539 54.293 96.4258 53.4727C94.6211 52.6289 93.0977 51.4219 91.8555 49.8516C90.6133 48.2812 89.6172 46.3828 88.8672 44.1562C88.1406 41.9297 87.6367 39.4219 87.3555 36.6328V33.3984C87.6367 30.5859 88.1406 28.0664 88.8672 25.8398C89.6172 23.6133 90.6133 21.7148 91.8555 20.1445C93.0977 18.5508 94.6211 17.3437 96.4258 16.5234C98.2305 15.6797 100.328 15.2578 102.719 15.2578C105.109 15.2578 107.23 15.7266 109.082 16.6641C110.934 17.5781 112.48 18.8906 113.723 20.6016C114.988 22.3125 115.949 24.3633 116.605 26.7539C117.262 29.1211 117.59 31.7578 117.59 34.6641ZM111.051 35.4023V34.6641C111.051 32.7656 110.875 30.9844 110.523 29.3203C110.172 27.6328 109.609 26.1562 108.836 24.8906C108.062 23.6016 107.043 22.5938 105.777 21.8672C104.512 21.1172 102.953 20.7422 101.102 20.7422C99.4609 20.7422 98.0312 21.0234 96.8125 21.5859C95.6172 22.1484 94.5977 22.9102 93.7539 23.8711C92.9102 24.8086 92.2188 25.8867 91.6797 27.1055C91.1641 28.3008 90.7773 29.543 90.5195 30.832V39.3047C90.8945 40.9453 91.5039 42.5273 92.3477 44.0508C93.2148 45.5508 94.3633 46.7812 95.793 47.7422C97.2461 48.7031 99.0391 49.1836 101.172 49.1836C102.93 49.1836 104.43 48.832 105.672 48.1289C106.938 47.4023 107.957 46.4062 108.73 45.1406C109.527 43.875 110.113 42.4102 110.488 40.7461C110.863 39.082 111.051 37.3008 111.051 35.4023Z" fill="#FB31C2" fill-opacity="0.65"/>
<path d="M162.906 30.0586H149.934L149.863 24.6094H161.641C163.586 24.6094 165.285 24.2812 166.738 23.625C168.191 22.9688 169.316 22.0312 170.113 20.8125C170.934 19.5703 171.344 18.0938 171.344 16.3828C171.344 14.5078 170.98 12.9844 170.254 11.8125C169.551 10.6172 168.461 9.75 166.984 9.21094C165.531 8.64844 163.68 8.36719 161.43 8.36719H151.445V54H144.66V2.8125H161.43C164.055 2.8125 166.398 3.08203 168.461 3.62109C170.523 4.13672 172.27 4.95703 173.699 6.08203C175.152 7.18359 176.254 8.58984 177.004 10.3008C177.754 12.0117 178.129 14.0625 178.129 16.4531C178.129 18.5625 177.59 20.4727 176.512 22.1836C175.434 23.8711 173.934 25.2539 172.012 26.332C170.113 27.4102 167.887 28.1016 165.332 28.4062L162.906 30.0586ZM162.59 54H147.262L151.094 48.4805H162.59C164.746 48.4805 166.574 48.1055 168.074 47.3555C169.598 46.6055 170.758 45.5508 171.555 44.1914C172.352 42.8086 172.75 41.1797 172.75 39.3047C172.75 37.4062 172.41 35.7656 171.73 34.3828C171.051 33 169.984 31.9336 168.531 31.1836C167.078 30.4336 165.203 30.0586 162.906 30.0586H153.238L153.309 24.6094H166.527L167.969 26.5781C170.43 26.7891 172.516 27.4922 174.227 28.6875C175.938 29.8594 177.238 31.3594 178.129 33.1875C179.043 35.0156 179.5 37.0312 179.5 39.2344C179.5 42.4219 178.797 45.1172 177.391 47.3203C176.008 49.5 174.051 51.1641 171.52 52.3125C168.988 53.4375 166.012 54 162.59 54Z" fill="#FB31C2" fill-opacity="0.69"/>
<path d="M186.812 35.4023V34.5938C186.812 31.8516 187.211 29.3086 188.008 26.9648C188.805 24.5977 189.953 22.5469 191.453 20.8125C192.953 19.0547 194.77 17.6953 196.902 16.7344C199.035 15.75 201.426 15.2578 204.074 15.2578C206.746 15.2578 209.148 15.75 211.281 16.7344C213.438 17.6953 215.266 19.0547 216.766 20.8125C218.289 22.5469 219.449 24.5977 220.246 26.9648C221.043 29.3086 221.441 31.8516 221.441 34.5938V35.4023C221.441 38.1445 221.043 40.6875 220.246 43.0312C219.449 45.375 218.289 47.4258 216.766 49.1836C215.266 50.918 213.449 52.2773 211.316 53.2617C209.207 54.2227 206.816 54.7031 204.145 54.7031C201.473 54.7031 199.07 54.2227 196.938 53.2617C194.805 52.2773 192.977 50.918 191.453 49.1836C189.953 47.4258 188.805 45.375 188.008 43.0312C187.211 40.6875 186.812 38.1445 186.812 35.4023ZM193.316 34.5938V35.4023C193.316 37.3008 193.539 39.0938 193.984 40.7812C194.43 42.4453 195.098 43.9219 195.988 45.2109C196.902 46.5 198.039 47.5195 199.398 48.2695C200.758 48.9961 202.34 49.3594 204.145 49.3594C205.926 49.3594 207.484 48.9961 208.82 48.2695C210.18 47.5195 211.305 46.5 212.195 45.2109C213.086 43.9219 213.754 42.4453 214.199 40.7812C214.668 39.0938 214.902 37.3008 214.902 35.4023V34.5938C214.902 32.7188 214.668 30.9492 214.199 29.2852C213.754 27.5977 213.074 26.1094 212.16 24.8203C211.27 23.5078 210.145 22.4766 208.785 21.7266C207.449 20.9766 205.879 20.6016 204.074 20.6016C202.293 20.6016 200.723 20.9766 199.363 21.7266C198.027 22.4766 196.902 23.5078 195.988 24.8203C195.098 26.1094 194.43 27.5977 193.984 29.2852C193.539 30.9492 193.316 32.7188 193.316 34.5938Z" fill="#FB31C2" fill-opacity="0.88"/>
<path d="M245.523 15.9609V20.9531H224.957V15.9609H245.523ZM231.918 6.71484H238.422V44.5781C238.422 45.8672 238.621 46.8398 239.02 47.4961C239.418 48.1523 239.934 48.5859 240.566 48.7969C241.199 49.0078 241.879 49.1133 242.605 49.1133C243.145 49.1133 243.707 49.0664 244.293 48.9727C244.902 48.8555 245.359 48.7617 245.664 48.6914L245.699 54C245.184 54.1641 244.504 54.3164 243.66 54.457C242.84 54.6211 241.844 54.7031 240.672 54.7031C239.078 54.7031 237.613 54.3867 236.277 53.7539C234.941 53.1211 233.875 52.0664 233.078 50.5898C232.305 49.0898 231.918 47.0742 231.918 44.543V6.71484Z" fill="#FB31C2"/>
</svg>
